<?xml version="1.0" standalone="no"?>
<!DOCTYPE svg PUBLIC "-//W3C//DTD SVG 20010904//EN"
 "http://www.w3.org/TR/2001/REC-SVG-20010904/DTD/svg10.dtd">
<svg version="1.0" xmlns="http://www.w3.org/2000/svg"
 width="980.000000pt" height="980.000000pt" viewBox="0 0 980.000000 980.000000"
 preserveAspectRatio="xMidYMid meet">

<g transform="translate(0.000000,980.000000) scale(0.100000,-0.100000)"
fill="#000000" stroke="none">
<path d="M1621 7499 c-328 -64 -585 -335 -630 -663 -14 -101 -15 -3771 -1
-3867 45 -311 255 -555 560 -651 l75 -23 3275 0 3275 0 75 23 c161 51 294 141
397 270 67 85 105 157 140 267 l28 90 3 1900 c2 1217 -1 1927 -7 1975 -41 315
-245 557 -556 662 l-70 23 -3260 1 c-1823 1 -3280 -2 -3304 -7z m5109 -1703
c-1279 -1279 -1253 -1254 -1425 -1325 -119 -50 -218 -72 -351 -78 -254 -12
-476 54 -664 196 -36 28 -594 579 -1240 1225 l-1175 1176 3025 0 3025 0 -1195
-1194z m-4359 -1750 c-470 -470 -857 -853 -860 -851 -3 2 -5 772 -3 1711 l2
1709 858 -858 857 -857 -854 -854z m5919 852 l0 -1713 -857 857 -858 858 855
855 c470 470 856 855 857 855 2 0 3 -771 3 -1712z m-4272 -762 c161 -114 381
-210 582 -253 67 -14 130 -18 300 -18 241 0 335 15 518 81 230 83 387 190 623
421 85 84 160 153 165 153 5 0 394 -385 864 -855 l855 -855 -3025 0 -3025 0
860 860 859 859 171 -167 c93 -92 207 -193 253 -226z"/>
</g>
</svg>
