<?xml version="1.0" standalone="no"?>
<!DOCTYPE svg PUBLIC "-//W3C//DTD SVG 20010904//EN"
 "http://www.w3.org/TR/2001/REC-SVG-20010904/DTD/svg10.dtd">
<svg version="1.0" xmlns="http://www.w3.org/2000/svg"
 width="920.000000pt" height="920.000000pt" viewBox="0 0 920.000000 920.000000"
 preserveAspectRatio="xMidYMid meet">

<g transform="translate(0.000000,920.000000) scale(0.100000,-0.100000)"
fill="#000000" stroke="none">
<path d="M4286 9190 c-912 -64 -1771 -384 -2486 -928 -825 -628 -1406 -1514
-1664 -2539 -104 -412 -151 -911 -128 -1351 36 -679 189 -1267 482 -1852 503
-1005 1353 -1782 2404 -2198 599 -237 1284 -348 1934 -314 675 36 1244 183
1832 473 622 307 1146 734 1580 1288 438 560 768 1305 885 1996 65 388 86 713
67 1063 -36 679 -188 1264 -478 1844 -353 706 -869 1298 -1509 1730 -642 434
-1344 690 -2125 773 -176 19 -618 27 -794 15z m585 -1859 c185 -42 309 -95
465 -199 183 -123 342 -306 439 -506 99 -202 135 -359 135 -581 0 -213 -36
-373 -124 -561 -179 -378 -519 -641 -946 -731 -117 -24 -363 -24 -480 0 -362
77 -648 267 -852 566 -145 213 -218 456 -218 726 0 221 35 374 130 570 197
409 579 680 1040 739 79 10 327 -4 411 -23z m55 -3271 c754 -70 1491 -394
2123 -934 150 -127 389 -370 439 -445 101 -152 111 -352 25 -526 -32 -64 -260
-291 -433 -431 -767 -620 -1604 -934 -2490 -934 -749 0 -1472 216 -2085 623
-240 160 -482 361 -663 553 -168 176 -202 244 -210 411 -8 195 37 281 270 515
667 668 1474 1072 2323 1162 154 17 547 20 701 6z"/>
</g>
</svg>
