<?xml version="1.0" standalone="no"?>
<!DOCTYPE svg PUBLIC "-//W3C//DTD SVG 20010904//EN"
 "http://www.w3.org/TR/2001/REC-SVG-20010904/DTD/svg10.dtd">
<svg version="1.0" xmlns="http://www.w3.org/2000/svg"
 width="612.000000pt" height="612.000000pt" viewBox="0 0 612.000000 612.000000"
 preserveAspectRatio="xMidYMid meet">

<g transform="translate(0.000000,612.000000) scale(0.100000,-0.100000)"
fill="#000000" stroke="none">
<path d="M1995 4751 c-179 -29 -320 -102 -450 -235 -283 -290 -299 -740 -36
-1053 31 -37 86 -90 121 -116 117 -87 110 -76 109 -162 -1 -66 2 -80 21 -100
12 -13 32 -26 43 -29 21 -5 22 -10 19 -112 l-3 -106 55 -99 56 -100 -33 -96
-34 -96 53 -95 52 -95 -46 -93 -47 -94 48 -95 47 -95 -26 -95 -25 -96 63 -108
63 -109 5 796 5 797 23 80 c13 44 25 82 28 84 2 2 4 -415 4 -927 0 -513 3
-932 6 -932 4 0 67 39 140 86 l134 86 0 754 0 754 34 14 c46 19 56 42 56 129
l0 74 89 66 c282 207 393 549 287 882 -78 246 -286 445 -538 515 -82 23 -246
33 -323 21z m210 -200 c187 -84 194 -345 13 -437 -44 -22 -61 -26 -122 -22
-59 3 -79 8 -116 33 -24 17 -58 50 -74 73 -26 37 -31 55 -34 116 -4 63 0 80
22 124 57 112 199 164 311 113z"/>
<path d="M3874 4746 c-92 -18 -135 -32 -209 -69 -215 -106 -362 -291 -423
-532 -9 -37 -15 -105 -14 -180 0 -185 47 -325 158 -471 56 -74 149 -159 215
-196 l39 -22 0 -78 c0 -92 9 -115 56 -134 l34 -14 0 -115 0 -115 56 -91 56
-91 -41 -91 c-23 -51 -41 -96 -41 -100 0 -4 27 -48 61 -98 l60 -90 -55 -95
-56 -96 50 -93 51 -94 -24 -95 -25 -95 92 -160 c50 -89 95 -161 100 -161 15 0
249 150 269 173 16 18 17 69 17 768 0 718 1 749 18 749 10 0 28 10 40 23 17
18 21 36 23 105 l2 83 61 42 c163 110 273 262 328 454 18 63 23 102 22 203 0
152 -15 218 -84 355 -98 200 -275 344 -492 405 -95 26 -251 34 -344 16z m242
-200 c89 -41 134 -118 134 -227 0 -67 -26 -124 -74 -167 -51 -44 -98 -62 -168
-62 -179 0 -293 186 -212 348 58 117 199 165 320 108z"/>
</g>
</svg>
